<svg xmlns="http://www.w3.org/2000/svg" width="29.637" height="23.17" viewBox="0 0 29.637 23.17"><defs><style>.a{fill:#8b8b8b;}.b{fill:#666;}</style></defs><g transform="translate(-236 -28.968)"><path class="a" d="M25.308,5.649,15.437,7.5,5.567,5.649A2.045,2.045,0,0,0,3.375,7.829V22.008c0,1.2.928,1.891,2.192,2.181l9.87,1.85,9.87-1.856C26.572,23.893,27.5,23.2,27.5,22V7.829A2.045,2.045,0,0,0,25.308,5.649Zm0,16.354-8.768,1.856V9.679l8.768-1.856ZM14.336,23.858,5.567,22V7.829l8.768,1.856Z" transform="translate(232.625 26.1)"/><path class="a" d="M6.259,2.008,9.015,4.764,3.03,10.749.573,11.02A.517.517,0,0,1,0,10.45L.276,7.991,6.259,2.008ZM10.72,1.6,9.426.3A1.034,1.034,0,0,0,7.964.3L6.746,1.521,9.5,4.277,10.72,3.06a1.034,1.034,0,0,0,0-1.462Z" transform="translate(254.614 28.968)"/><path class="b" d="M-1.387-1.238-4.009,1.116c-.178.178-.447.369-.625.191l-.174-.247A.537.537,0,0,1-4.76.355L-3.229-1.56A22.272,22.272,0,0,1-6.1-4.256C-7.555-5.882-9.329-7.918-9.329-7.918l.741-.751c.328.122,1.108,1.37,2.991,3.061L-4.55-4.6h0A16.352,16.352,0,0,0-1.387-1.882.456.456,0,0,1-1.387-1.238Z" transform="matrix(0.07, 0.998, -0.998, 0.07, 239.922, 47.427)"/></g></svg>